<?xml version="1.0" encoding="UTF-8"?>
<svg width="160px" height="40px" viewBox="0 0 160 40" version="1.1" xmlns="http://www.w3.org/2000/svg" xmlns:xlink="http://www.w3.org/1999/xlink">
    <title>Apple Podcasts</title>
    <defs>
        <linearGradient x1="50%" y1="0%" x2="50%" y2="100%" id="linearGradient-1">
            <stop stop-color="#F452FF" offset="0%"></stop>
            <stop stop-color="#832BC1" offset="100%"></stop>
        </linearGradient>
    </defs>
    <g id="Page-1" stroke="none" stroke-width="1" fill="none" fill-rule="evenodd">
        <g id="Listen-On" transform="translate(-149.000000, -485.000000)">
            <g id="Apple-Podcasts" transform="translate(149.000000, 485.000000)">
                <rect id="Rectangle" fill="#000000" x="0" y="0" width="160" height="40" rx="7"></rect>
                <g id="XMLID_632_" transform="translate(9.000000, 7.000000)">
                    <path d="M24.2135577,21.3731731 C23.9783654,21.9705769 23.4356731,22.8117308 22.6660577,23.4042308 C22.2217308,23.7464423 21.69125,24.0735577 20.9625962,24.2894231 C20.1858654,24.5196154 19.2291346,24.5974038 18.0383654,24.5974038 L7.15057692,24.5974038 C5.95990385,24.5974038 5.00317308,24.5196154 4.22634615,24.2894231 C3.49769231,24.0735577 2.96730769,23.7464423 2.52288462,23.4042308 C1.75336538,22.8116346 1.21057692,21.9705769 0.975384615,21.3731731 C0.501634615,20.1695192 0.496826923,18.8038462 0.496826923,17.94375 L0.496826923,17.94375 L0.496826923,7.05586538 L0.496826923,7.05586538 C0.496826923,6.19576923 0.501634615,4.83009615 0.975384615,3.62644231 C1.21057692,3.02903846 1.75326923,2.18788462 2.52288462,1.59538462 C2.96721154,1.25317308 3.49769231,0.926057692 4.22634615,0.710192308 C5.00307692,0.48 5.95980769,0.402211538 7.15057692,0.402211538 L7.15057692,0.402211538 L18.0384615,0.402211538 L18.0384615,0.402211538 C19.2291346,0.402211538 20.1858654,0.48 20.9626923,0.710192308 C21.6913462,0.926057692 22.2217308,1.25326923 22.6661538,1.59538462 C23.4356731,2.18798077 23.9784615,3.02903846 24.2136538,3.62644231 C24.6874038,4.83009615 24.6922115,6.19576923 24.6922115,7.05586538 L24.6922115,17.94375 C24.6922115,18.80375 24.6873077,20.1694231 24.2135577,21.3731731 Z" id="XMLID_662_" fill="url(#linearGradient-1)"></path>
                    <path d="M24.2135577,21.3731731 C23.9783654,21.9705769 23.4356731,22.8117308 22.6660577,23.4042308 C22.2217308,23.7464423 21.69125,24.0735577 20.9625962,24.2894231 C20.1858654,24.5196154 19.2291346,24.5974038 18.0383654,24.5974038 L7.15057692,24.5974038 C5.95990385,24.5974038 5.00317308,24.5196154 4.22634615,24.2894231 C3.49769231,24.0735577 2.96730769,23.7464423 2.52288462,23.4042308 C1.75336538,22.8116346 1.21057692,21.9705769 0.975384615,21.3731731 C0.501634615,20.1695192 0.496826923,18.8038462 0.496826923,17.94375 L0.496826923,17.94375 L0.496826923,7.05586538 L0.496826923,7.05586538 C0.496826923,6.19576923 0.501634615,4.83009615 0.975384615,3.62644231 C1.21057692,3.02903846 1.75326923,2.18788462 2.52288462,1.59538462 C2.96721154,1.25317308 3.49769231,0.926057692 4.22634615,0.710192308 C5.00307692,0.48 5.95980769,0.402211538 7.15057692,0.402211538 L7.15057692,0.402211538 L18.0384615,0.402211538 L18.0384615,0.402211538 C19.2291346,0.402211538 20.1858654,0.48 20.9626923,0.710192308 C21.6913462,0.926057692 22.2217308,1.25326923 22.6661538,1.59538462 C23.4356731,2.18798077 23.9784615,3.02903846 24.2136538,3.62644231 C24.6874038,4.83009615 24.6922115,6.19576923 24.6922115,7.05586538 L24.6922115,17.94375 C24.6922115,18.80375 24.6873077,20.1694231 24.2135577,21.3731731 Z" id="XMLID_660_"></path>
                    <g id="XMLID_648_" transform="translate(3.846154, 2.884615)" fill="#FFFFFF" fill-rule="nonzero">
                        <path d="M10.5030769,11.4245192 C10.14,11.0414423 9.50230769,10.7958654 8.74951923,10.7958654 C7.99663462,10.7958654 7.35894231,11.0414423 6.99586538,11.4245192 C6.80644231,11.6244231 6.70625,11.8293269 6.67471154,12.12125 C6.61355769,12.6865385 6.64788462,13.1732692 6.71413462,13.9514423 C6.77721154,14.6929808 6.89701923,15.6818269 7.05336538,16.6889423 C7.16461538,17.4056731 7.255,17.7925 7.33730769,18.0695192 C7.47076923,18.5184615 7.96951923,18.9110577 8.74951923,18.9110577 C9.52942308,18.9110577 10.0281731,18.5183654 10.1616346,18.0695192 C10.2439423,17.7925 10.3343269,17.4056731 10.4455769,16.6889423 C10.6019231,15.6818269 10.7217308,14.6929808 10.7848077,13.9514423 C10.8510577,13.1731731 10.8853846,12.6864423 10.8242308,12.12125 C10.7926923,11.8294231 10.6925,11.6244231 10.5030769,11.4245192 Z M6.77125,8.01365385 C6.77125,9.10721154 7.65778846,9.99375 8.75134615,9.99375 C9.845,9.99375 10.7315385,9.10721154 10.7315385,8.01365385 C10.7315385,6.92 9.845,6.03346154 8.75134615,6.03346154 C7.65778846,6.03346154 6.77125,6.92 6.77125,8.01365385 Z M8.72682692,0.199195318 C4.09576923,0.212403846 0.301057692,3.96942308 0.24375,8.60019231 C0.197211538,12.3514423 2.59182692,15.5602885 5.93557692,16.7364423 C6.01673077,16.765 6.09913462,16.6975962 6.08634615,16.6125 C6.0425,16.32125 6.00115385,16.0285577 5.96317308,15.7407692 C5.94971154,15.6390385 5.88490385,15.5513462 5.79096154,15.5102885 C3.14807692,14.3556731 1.30259615,11.7050962 1.33221154,8.63480769 C1.37105769,4.60557692 4.66125,1.32076923 8.69048077,1.28817308 C12.8096154,1.25490385 16.17125,4.59605769 16.17125,8.70759615 C16.17125,11.7471154 14.3338462,14.3651923 11.7115385,15.5105769 C11.6175962,15.5516346 11.5531731,15.6396154 11.5398077,15.74125 C11.5018269,16.0289423 11.4604808,16.3215385 11.4167308,16.6125 C11.4038462,16.6975962 11.48625,16.765 11.5674038,16.7365385 C14.8792308,15.5716346 17.2599038,12.4126923 17.2599038,8.70769231 C17.2597115,4.00778846 13.4296154,0.185769231 8.72682692,0.199195318 Z M8.57307692,4.10259615 C11.1983654,4.00096154 13.3664423,6.10711538 13.3664423,8.71019231 C13.3664423,10.0340385 12.8055769,11.2292308 11.9091346,12.0709615 C11.8330769,12.1423077 11.7922115,12.2436538 11.7980769,12.3477885 C11.8159615,12.6644231 11.8094231,12.9721154 11.7883654,13.3196154 C11.7826923,13.4122115 11.8865385,13.4713462 11.9631731,13.4191346 C13.4664423,12.3918269 14.4551923,10.6644231 14.4551923,8.71019231 C14.4551923,5.4925 11.775,2.88894231 8.52990385,3.01471154 C5.51413462,3.13163462 3.09461538,5.61807692 3.05596154,8.63596154 C3.03057692,10.6207692 4.02538462,12.3791346 5.54798077,13.4193269 C5.62442308,13.4715385 5.72798077,13.4123077 5.72230769,13.3198077 C5.70115385,12.9721154 5.69471154,12.6644231 5.7125,12.3477885 C5.71836538,12.24375 5.67759615,12.1424038 5.60173077,12.0711538 C4.67730769,11.2032692 4.10961538,9.95951923 4.14576923,8.58644231 C4.20942308,6.17009615 6.15759615,4.19615385 8.57307692,4.10259615 Z" id="Shape"></path>
                    </g>
                </g>
                <path d="M43,14.8958032 L43,9.10419682 L43.9101895,9.10419682 L43.9101895,14.1316932 L46.6680638,14.1316932 L46.6680638,14.8958032 L43,14.8958032 Z M48.0087195,9.99855282 C47.7265607,9.99855282 47.4808095,9.78147612 47.4808095,9.50361795 C47.4808095,9.22575977 47.7265607,9 48.0087195,9 C48.2999801,9 48.5366294,9.22575977 48.5366294,9.50361795 C48.5366294,9.78147612 48.2999801,9.99855282 48.0087195,9.99855282 Z M47.6082361,14.8958032 L47.6082361,10.7018813 L48.4274066,10.7018813 L48.4274066,14.8958032 L47.6082361,14.8958032 Z M49.3038656,14.3487699 L49.6952471,13.7756874 C49.9956097,14.0882779 50.578131,14.3748191 51.1697542,14.3748191 C51.7886831,14.3748191 52.1163513,14.1316932 52.1163513,13.7756874 C52.1163513,13.3589001 51.615747,13.2199711 51.0514295,13.0984081 C50.3050741,12.9334298 49.4312922,12.7424023 49.4312922,11.8393632 C49.4312922,11.170767 50.0320173,10.5976845 51.1060409,10.5976845 C51.8614982,10.5976845 52.4076119,10.8581766 52.7807896,11.1968162 L52.4167138,11.7438495 C52.1618608,11.4486252 51.6703584,11.2315485 51.1151428,11.2315485 C50.5599272,11.2315485 50.2140552,11.4399421 50.2140552,11.7785818 C50.2140552,12.1432706 50.6873537,12.2648336 51.2334674,12.3863965 C51.9980266,12.5513748 52.9082162,12.7510854 52.9082162,13.7149059 C52.9082162,14.4356006 52.2892873,15 51.1333466,15 C50.3960931,15 49.7498585,14.7829233 49.3038656,14.3487699 Z M55.1135519,15 C54.4218078,15 54.0668339,14.6266281 54.0668339,13.9667149 L54.0668339,11.3878437 L53.3386823,11.3878437 L53.3386823,10.7018813 L54.0668339,10.7018813 L54.0668339,9.55571635 L54.8860045,9.55571635 L54.8860045,10.7018813 L55.7779902,10.7018813 L55.7779902,11.3878437 L54.8860045,11.3878437 L54.8860045,13.7930535 C54.8860045,14.0882779 55.0316348,14.3053546 55.3137936,14.3053546 C55.5049334,14.3053546 55.6778694,14.2272069 55.7597864,14.1403763 L55.96913,14.7308249 C55.796194,14.8871201 55.541341,15 55.1135519,15 Z M56.3722905,12.7945007 C56.3722905,11.5788712 57.2915819,10.5976845 58.5749491,10.5976845 C59.894724,10.5976845 60.7138945,11.5788712 60.7138945,12.8639653 L60.7138945,13.0549928 L57.2369705,13.0549928 C57.3006838,13.7670043 57.8467975,14.357453 58.7296814,14.357453 C59.193878,14.357453 59.7035842,14.1837916 60.0312524,13.8625181 L60.413532,14.3748191 C59.976641,14.7829233 59.3577121,15 58.6477643,15 C57.3370914,15 56.3722905,14.1143271 56.3722905,12.7945007 Z M58.5749491,11.2402315 C57.6920653,11.2402315 57.2733781,11.9175109 57.2278686,12.4905933 L59.9129278,12.4905933 C59.894724,11.934877 59.5033425,11.2402315 58.5749491,11.2402315 Z M64.6667941,14.8958032 L64.6667941,12.2127352 C64.6667941,11.5180897 64.2936164,11.29233 63.7292989,11.29233 C63.2195928,11.29233 62.7553961,11.5875543 62.5187468,11.9001447 L62.5187468,14.8958032 L61.6995763,14.8958032 L61.6995763,10.7018813 L62.5187468,10.7018813 L62.5187468,11.29233 C62.8100075,10.9536903 63.3925288,10.5976845 64.0751709,10.5976845 C65.0035643,10.5976845 65.4859647,11.0665702 65.4859647,11.9522431 L65.4859647,14.8958032 L64.6667941,14.8958032 Z M70.9979655,15 C69.6326812,15 68.777103,14.0101302 68.777103,12.7945007 C68.777103,11.5875543 69.6326812,10.5976845 70.9979655,10.5976845 C72.3723517,10.5976845 73.2188279,11.5875543 73.2188279,12.7945007 C73.2188279,14.0101302 72.3723517,15 70.9979655,15 Z M70.9979655,14.3053546 C71.8808493,14.3053546 72.3632498,13.593343 72.3632498,12.7945007 C72.3632498,12.0043415 71.8808493,11.29233 70.9979655,11.29233 C70.1241835,11.29233 69.6326812,12.0043415 69.6326812,12.7945007 C69.6326812,13.593343 70.1241835,14.3053546 70.9979655,14.3053546 Z M77.1808294,14.8958032 L77.1808294,12.2127352 C77.1808294,11.5180897 76.8076517,11.29233 76.2433342,11.29233 C75.7336281,11.29233 75.2694314,11.5875543 75.0327821,11.9001447 L75.0327821,14.8958032 L74.2136115,14.8958032 L74.2136115,10.7018813 L75.0327821,10.7018813 L75.0327821,11.29233 C75.3240428,10.9536903 75.9065641,10.5976845 76.5892062,10.5976845 C77.5175995,10.5976845 78,11.0665702 78,11.9522431 L78,14.8958032 L77.1808294,14.8958032 Z" id="Listenon-Copy" fill="#FFFFFF" fill-rule="nonzero"></path>
                <path d="M45.0234375,31 L46.0546875,27.953125 L50.3515625,27.953125 L51.3828125,31 L53.234375,31 L49.1640625,19.7265625 L47.2734375,19.7265625 L43.203125,31 L45.0234375,31 Z M49.90625,26.546875 L46.5,26.546875 L48.1796875,21.6015625 L48.2265625,21.6015625 L49.90625,26.546875 Z M55.9609375,33.71875 L55.9609375,29.6484375 L56,29.6484375 C56.46875,30.5625 57.40625,31.140625 58.5859375,31.140625 C60.6484375,31.140625 62.015625,29.4921875 62.015625,26.890625 C62.015625,24.2890625 60.640625,22.6484375 58.5546875,22.6484375 C57.3671875,22.6484375 56.421875,23.25 55.9375,24.1953125 L55.90625,24.1953125 L55.90625,22.78125 L54.2734375,22.78125 L54.2734375,33.71875 L55.9609375,33.71875 Z M58.109375,29.7109375 C56.8125,29.7109375 55.953125,28.6015625 55.953125,26.890625 C55.953125,25.1953125 56.8203125,24.0703125 58.109375,24.0703125 C59.4453125,24.0703125 60.28125,25.171875 60.28125,26.890625 C60.28125,28.6171875 59.4453125,29.7109375 58.109375,29.7109375 Z M65,33.71875 L65,29.6484375 L65.0390625,29.6484375 C65.5078125,30.5625 66.4453125,31.140625 67.625,31.140625 C69.6875,31.140625 71.0546875,29.4921875 71.0546875,26.890625 C71.0546875,24.2890625 69.6796875,22.6484375 67.59375,22.6484375 C66.40625,22.6484375 65.4609375,23.25 64.9765625,24.1953125 L64.9453125,24.1953125 L64.9453125,22.78125 L63.3125,22.78125 L63.3125,33.71875 L65,33.71875 Z M67.1484375,29.7109375 C65.8515625,29.7109375 64.9921875,28.6015625 64.9921875,26.890625 C64.9921875,25.1953125 65.859375,24.0703125 67.1484375,24.0703125 C68.484375,24.0703125 69.3203125,25.171875 69.3203125,26.890625 C69.3203125,28.6171875 68.484375,29.7109375 67.1484375,29.7109375 Z M74.1015625,31 L74.1015625,19.7265625 L72.4140625,19.7265625 L72.4140625,31 L74.1015625,31 Z M79.34375,31.15625 C81.2265625,31.15625 82.6484375,30.0859375 82.8828125,28.5859375 L81.28125,28.5859375 C81.0546875,29.3046875 80.34375,29.7890625 79.3828125,29.7890625 C78.03125,29.7890625 77.171875,28.84375 77.171875,27.4140625 L77.171875,27.3125 L82.9765625,27.3125 L82.9765625,26.734375 C82.9765625,24.2421875 81.5546875,22.6328125 79.2734375,22.6328125 C76.953125,22.6328125 75.46875,24.3515625 75.46875,26.9296875 C75.46875,29.5234375 76.9296875,31.15625 79.34375,31.15625 Z M81.2890625,26.1328125 L77.1796875,26.1328125 C77.265625,24.890625 78.09375,23.9921875 79.2734375,23.9921875 C80.453125,23.9921875 81.25,24.875 81.2890625,26.1328125 Z M89.4765625,31 L89.4765625,27.1484375 L91.8984375,27.1484375 C94.109375,27.1484375 95.6640625,25.6328125 95.6640625,23.4296875 C95.6640625,21.234375 94.140625,19.7265625 91.953125,19.7265625 L87.7265625,19.7265625 L87.7265625,31 L89.4765625,31 Z M91.484375,25.6796875 L89.4765625,25.6796875 L89.4765625,21.203125 L91.4921875,21.203125 C93.0078125,21.203125 93.875,22.015625 93.875,23.4375 C93.875,24.859375 93.0078125,25.6796875 91.484375,25.6796875 Z M100.523438,31.15625 C102.875,31.15625 104.421875,29.5390625 104.421875,26.890625 C104.421875,24.25 102.867188,22.6328125 100.523438,22.6328125 C98.1796875,22.6328125 96.625,24.25 96.625,26.890625 C96.625,29.5390625 98.171875,31.15625 100.523438,31.15625 Z M100.523438,29.765625 C99.203125,29.765625 98.34375,28.71875 98.34375,26.890625 C98.34375,25.0703125 99.203125,24.0234375 100.523438,24.0234375 C101.84375,24.0234375 102.703125,25.0703125 102.703125,26.890625 C102.703125,28.71875 101.851562,29.765625 100.523438,29.765625 Z M108.8125,31.140625 C110.007812,31.140625 110.945312,30.5390625 111.429688,29.6015625 L111.460938,29.6015625 L111.460938,31 L113.101562,31 L113.101562,19.7265625 L111.40625,19.7265625 L111.40625,24.1484375 L111.375,24.1484375 C110.914062,23.2421875 109.976562,22.6484375 108.796875,22.6484375 C106.734375,22.6484375 105.359375,24.296875 105.359375,26.890625 C105.359375,29.484375 106.734375,31.140625 108.8125,31.140625 Z M109.257812,29.7109375 C107.921875,29.7109375 107.085938,28.625 107.085938,26.890625 C107.085938,25.1640625 107.921875,24.0703125 109.257812,24.0703125 C110.554688,24.0703125 111.421875,25.1875 111.421875,26.890625 C111.421875,28.609375 110.554688,29.7109375 109.257812,29.7109375 Z M118.34375,31.15625 C120.320312,31.15625 121.71875,29.96875 121.898438,28.21875 L120.273438,28.21875 C120.078125,29.171875 119.398438,29.7421875 118.359375,29.7421875 C117.046875,29.7421875 116.179688,28.6953125 116.179688,26.890625 C116.179688,25.125 117.039062,24.0390625 118.34375,24.0390625 C119.445312,24.0390625 120.101562,24.734375 120.273438,25.609375 L121.882812,25.609375 C121.734375,23.9921875 120.445312,22.6328125 118.328125,22.6328125 C115.992188,22.6328125 114.460938,24.28125 114.460938,26.890625 C114.460938,29.546875 115.992188,31.15625 118.34375,31.15625 Z M125.5,31.140625 C126.578125,31.140625 127.617188,30.5625 128.09375,29.6484375 L128.132812,29.6484375 L128.132812,31 L129.75,31 L129.75,25.3359375 C129.75,23.6875 128.476562,22.6328125 126.484375,22.6328125 C124.453125,22.6328125 123.1875,23.7265625 123.09375,25.2109375 L124.6875,25.2109375 C124.835938,24.4765625 125.445312,24.0078125 126.421875,24.0078125 C127.453125,24.0078125 128.070312,24.5546875 128.070312,25.46875 L128.070312,26.1015625 L125.820312,26.234375 C123.867188,26.34375 122.765625,27.2265625 122.765625,28.6640625 C122.765625,30.140625 123.890625,31.140625 125.5,31.140625 Z M125.96875,29.8046875 C125.0625,29.8046875 124.46875,29.3359375 124.46875,28.6171875 C124.46875,27.9140625 125.039062,27.46875 126.046875,27.3984375 L128.070312,27.2734375 L128.070312,27.921875 C128.070312,28.9921875 127.148438,29.8046875 125.96875,29.8046875 Z M134.46875,31.15625 C136.40625,31.15625 137.804688,30.125 137.804688,28.625 C137.804688,27.4375 137.164062,26.78125 135.484375,26.390625 L134.148438,26.0859375 C133.257812,25.8828125 132.882812,25.53125 132.882812,25.015625 C132.882812,24.359375 133.492188,23.9140625 134.40625,23.9140625 C135.351562,23.9140625 135.9375,24.4140625 136.03125,25.2109375 L137.617188,25.2109375 C137.5625,23.6953125 136.320312,22.6328125 134.40625,22.6328125 C132.515625,22.6328125 131.234375,23.640625 131.234375,25.109375 C131.234375,26.3046875 132.007812,27.0546875 133.570312,27.4140625 L134.90625,27.7265625 C135.804688,27.9296875 136.109375,28.2421875 136.109375,28.7734375 C136.109375,29.4453125 135.484375,29.8671875 134.46875,29.8671875 C133.4375,29.8671875 132.851562,29.4453125 132.695312,28.5859375 L131.023438,28.5859375 C131.179688,30.1484375 132.414062,31.15625 134.46875,31.15625 Z M141.914062,31.0546875 C142.289062,31.0546875 142.664062,31.0234375 142.851562,30.9765625 L142.851562,29.640625 C142.742188,29.6640625 142.46875,29.6796875 142.296875,29.6796875 C141.609375,29.6796875 141.296875,29.359375 141.296875,28.6484375 L141.296875,24.1171875 L142.859375,24.1171875 L142.859375,22.78125 L141.296875,22.78125 L141.296875,20.8359375 L139.601562,20.8359375 L139.601562,22.78125 L138.40625,22.78125 L138.40625,24.1171875 L139.601562,24.1171875 L139.601562,28.8359375 C139.601562,30.421875 140.25,31.0546875 141.914062,31.0546875 Z M147.328125,31.15625 C149.265625,31.15625 150.664062,30.125 150.664062,28.625 C150.664062,27.4375 150.023438,26.78125 148.34375,26.390625 L147.007812,26.0859375 C146.117188,25.8828125 145.742188,25.53125 145.742188,25.015625 C145.742188,24.359375 146.351562,23.9140625 147.265625,23.9140625 C148.210938,23.9140625 148.796875,24.4140625 148.890625,25.2109375 L150.476562,25.2109375 C150.421875,23.6953125 149.179688,22.6328125 147.265625,22.6328125 C145.375,22.6328125 144.09375,23.640625 144.09375,25.109375 C144.09375,26.3046875 144.867188,27.0546875 146.429688,27.4140625 L147.765625,27.7265625 C148.664062,27.9296875 148.96875,28.2421875 148.96875,28.7734375 C148.96875,29.4453125 148.34375,29.8671875 147.328125,29.8671875 C146.296875,29.8671875 145.710938,29.4453125 145.554688,28.5859375 L143.882812,28.5859375 C144.039062,30.1484375 145.273438,31.15625 147.328125,31.15625 Z" id="ApplePodcasts" fill="#FFFFFF" fill-rule="nonzero"></path>
            </g>
        </g>
    </g>
</svg>
