<svg version="1.1" width="1067" height="600" xmlns="http://www.w3.org/2000/svg">
<rect x="0" y="0" width="1067" height="600" fill="#63709d" />
<g transform="scale(4.16797, 4.1958)">
<path d="M 131.739 52.628 L 55.0982 158 L 227.639 155.359 L 220.961 90.5879 Z" fill="#f69a46" fill-opacity="0.501961" />
<path d="M 223.178 56.2882 L 224.942 150.968 L 256.193 158 L 268.461 87.6045 Z" fill="#000000" fill-opacity="0.501961" />
<path d="M 238.991 73.8647 L 73.6116 128.763 L 46.83 132.275 L 233.944 63.573 Z" fill="#000811" fill-opacity="0.501961" />
<path d="M 224.043 115.364 L 224.121 77.9013 L 66.8924 158 L 220.196 158 Z" fill="#f7c29d" fill-opacity="0.501961" />
<path d="M 29.3319 158 L -14.1362 158 L -1.89295 0.611807 L 185.038 -12.6811 Z" fill="#397aec" fill-opacity="0.501961" />
<path d="M 157.24 45.204 L 74.4222 131.524 L 113.95 60.8484 L 210.384 90.8148 Z" fill="#3f373c" fill-opacity="0.501961" />
<path d="M 246.328 72.163 L 223.045 64.8777 L 228.345 125.275 L 271 131.668 Z" fill="#0b0406" fill-opacity="0.501961" />
<path d="M 159.538 116.478 L 149.277 152.306 L 170.481 151.539 L 167.153 114.782 Z" fill="#ffffff" fill-opacity="0.501961" />
<path d="M 192.305 59.8355 L 58.0022 22.0205 L 255.242 -16 L 259.754 59.755 Z" fill="#3067d3" fill-opacity="0.501961" />
<path d="M 192.174 158 L 192.154 119.9 L 207.516 114.63 L 208.388 158 Z" fill="#ffffff" fill-opacity="0.501961" />
<path d="M 202.899 72.6333 L 103.563 101.229 L 221.331 54.6562 L 237.011 59.0334 Z" fill="#3a373d" fill-opacity="0.501961" />
<path d="M 65.2874 137.205 L 18.6243 70.1132 L -16 136.719 L 46.0594 158 Z" fill="#70a0ec" fill-opacity="0.501961" />
<path d="M 107.322 81.6189 L 138.348 45.8422 L 137.243 38.3698 L 100.075 81.1098 Z" fill="#121314" fill-opacity="0.501961" />
<path d="M 100.065 112.79 L 68.9197 105.063 L 57.6754 132.184 L 102.913 118.716 Z" fill="#322f2c" fill-opacity="0.501961" />
<path d="M 105.529 134.589 L 77.6737 158 L 135.933 129.145 L 139.954 146.872 Z" fill="#e9f6e4" fill-opacity="0.501961" />
<path d="M 158.489 55.1355 L 127.164 68.6703 L 114.612 72.5997 L 132.503 55.1364 Z" fill="#faa379" fill-opacity="0.501961" />
<path d="M 108.705 80.6674 L 140.456 70.3303 L 172.774 54.0939 L 135.816 64.5449 Z" fill="#040812" fill-opacity="0.501961" />
<path d="M 91.0727 122.621 L 58.8621 133.262 L 66.7058 158 L 90.4598 158 Z" fill="#f69b6e" fill-opacity="0.501961" />
<path d="M 183.999 152.955 L 182.607 99.3791 L 136.525 137.149 L 162.529 99.4669 Z" fill="#9e6651" fill-opacity="0.501961" />
<path d="M 106.314 81.6082 L 102.694 95.876 L 7.54454 140.947 L -16 59.7976 Z" fill="#5a86d6" fill-opacity="0.501961" />
<path d="M 180.873 61.7712 L 130.371 47.681 L 139.995 45.344 L 158.447 50.849 Z" fill="#191d21" fill-opacity="0.501961" />
<path d="M 208.088 62.5811 L 253.273 14.7824 L 166.812 39.5812 L 173.149 73.5868 Z" fill="#4777d0" fill-opacity="0.501961" />
<path d="M 226.603 70.5377 L 218.805 44.0716 L 271 113.03 L 250.016 158 Z" fill="#13131c" fill-opacity="0.501961" />
<path d="M -3.34106 35.4871 L -11.8926 -8.33589 L 179.049 -9.00194 L 140.214 44.625 Z" fill="#4160ae" fill-opacity="0.501961" />
<path d="M 134.244 110.737 L 109.231 140.263 L 120.319 139.386 L 120.607 146.444 Z" fill="#7b5548" fill-opacity="0.501961" />
<path d="M 124.024 95.3378 L 80.5967 112.446 L 96.1981 95.5717 L 111.32 97.0288 Z" fill="#33353e" fill-opacity="0.501961" />
<path d="M 148.986 98.3235 L 167.165 60.0672 L 114.933 80.471 L 163.344 83.3948 Z" fill="#cf8c71" fill-opacity="0.501961" />
<path d="M 233.567 116.018 L 240.329 120.047 L 242.668 138.905 L 234.71 158 Z" fill="#657587" fill-opacity="0.501961" />
<path d="M 208.76 84.8321 L 225.99 75.7429 L 221.698 144.872 L 185.621 93.4472 Z" fill="#d68561" fill-opacity="0.501961" />
<path d="M 224.697 57.4032 L 180.778 98.1258 L 184.329 62.4338 L 165.268 78.8922 Z" fill="#2f3743" fill-opacity="0.501961" />
<path d="M 243.908 72.5196 L 271 87.5989 L 246.391 18.7574 L 227.145 56.0602 Z" fill="#4779d6" fill-opacity="0.501961" />
<path d="M 95.0001 144.683 L 144.245 106.255 L 161.547 115.843 L 115.426 114.837 Z" fill="#f2af89" fill-opacity="0.501961" />
<path d="M 224.814 65.6998 L 222.611 58.8618 L 216.797 64.4923 L 221.202 70.8669 Z" fill="#f09965" fill-opacity="0.501961" />
<path d="M 111.754 129.696 L 100.864 134.293 L 95.5251 158 L 103.8 149.581 Z" fill="#f5fde8" fill-opacity="0.501961" />
<path d="M 99.9461 105.743 L 168.847 79.9907 L 183.218 74.724 L 178.438 86.4437 Z" fill="#d89377" fill-opacity="0.501961" />
<path d="M 72.9326 106.33 L 68.5042 100.622 L 68.3585 107.954 L 64.277 158 Z" fill="#432f24" fill-opacity="0.501961" />
<path d="M 125.303 129.554 L 132.795 125.877 L 138.099 124.828 L 136.729 158 Z" fill="#f5ffe8" fill-opacity="0.501961" />
<path d="M 173.27 57.3146 L 165.776 51.3779 L 160.411 119.283 L 170.714 57.4389 Z" fill="#2b3139" fill-opacity="0.501961" />
<path d="M 158.495 56.7167 L 130.544 55.0604 L 141.003 50.8778 L 159.874 57.2334 Z" fill="#e78d52" fill-opacity="0.501961" />
<path d="M 103.514 119.754 L 94.2907 158 L 89.6621 130.627 L 114.01 132.779 Z" fill="#74564c" fill-opacity="0.501961" />
<path d="M 207.016 109.598 L 205.142 113.485 L 183.933 121.616 L 192.98 115.27 Z" fill="#645751" fill-opacity="0.501961" />
<path d="M 151.791 158 L 156.649 108.42 L 135.93 130.904 L 150.137 129.398 Z" fill="#946b5b" fill-opacity="0.501961" />
<path d="M 235.772 158 L 224.021 70.3642 L 225.223 107.124 L 223.211 151.906 Z" fill="#2c1811" fill-opacity="0.501961" />
<path d="M 254.14 96.0238 L 250.681 67.4884 L 112.913 114.052 L 222.958 78.9743 Z" fill="#080e1a" fill-opacity="0.501961" />
<path d="M 154.265 133.027 L 156.261 120.729 L 163.408 114.211 L 161.5 158 Z" fill="#fdfff8" fill-opacity="0.501961" />
<path d="M 61.9407 142.113 L -10.8719 158 L 70.4527 120.267 L 57.5006 108.618 Z" fill="#6b97de" fill-opacity="0.501961" />
<path d="M 225.74 79.3974 L 170.415 138.526 L 169.615 115.607 L 163.103 100.178 Z" fill="#d78f6e" fill-opacity="0.501961" />
<path d="M 143.001 130.93 L 138.356 108.233 L 154.708 102.839 L 158.819 103.008 Z" fill="#f4a37b" fill-opacity="0.501961" />
<path d="M 119.819 80.8603 L 107.203 81.8883 L 133.203 88.9661 L 101.441 94.7516 Z" fill="#d79378" fill-opacity="0.501961" />
<path d="M 221.25 158 L 187.591 156.639 L 206.575 117.276 L 208.611 158 Z" fill="#feffee" fill-opacity="0.501961" />
<path d="M 133.222 48.1562 L 161.78 57.2449 L 140.09 48.1473 L 115.253 67.5524 Z" fill="#21120a" fill-opacity="0.501961" />
<path d="M 184.664 86.3464 L 181.974 130.715 L 181.03 141.484 L 181.467 80.2591 Z" fill="#472924" fill-opacity="0.501961" />
<path d="M 132.218 122.052 L 138.071 60.2101 L 135.939 73.8695 L 128.17 126.306 Z" fill="#413739" fill-opacity="0.501961" />
<path d="M 118.842 83.574 L 151.458 69.9991 L 139.776 73.1039 L 111.483 84.8085 Z" fill="#5f4c48" fill-opacity="0.501961" />
<path d="M 113.535 108.399 L 118.988 105.183 L 235.36 63.2772 L 199.38 79.4144 Z" fill="#707076" fill-opacity="0.501961" />
<path d="M 254.209 89.6085 L 260.316 98.9017 L 259.497 72.5075 L 253.486 85.2371 Z" fill="#548cf3" fill-opacity="0.501961" />
<path d="M 105.287 129.305 L 113.088 63.8787 L 102.279 121.852 L 102.691 133.249 Z" fill="#544443" fill-opacity="0.501961" />
<path d="M 223.449 38.9494 L 221.07 49.0316 L 264.156 104.579 L 231.301 74.8114 Z" fill="#10192e" fill-opacity="0.501961" />
<path d="M 93.0957 32.9218 L 232.46 14.294 L 225.166 42.4346 L 206.091 63.1188 Z" fill="#4a73c6" fill-opacity="0.501961" />
<path d="M 66.0479 128.901 L 166.274 98.9784 L 177.158 84.0979 L 189.892 88.3378 Z" fill="#202027" fill-opacity="0.501961" />
<path d="M 86.9163 109.004 L 67.8191 111.478 L 67.8404 131.012 L 61.085 125.723 Z" fill="#2c2727" fill-opacity="0.501961" />
<path d="M -16 89.2869 L 90.0896 56.7935 L 104.96 83.5719 L 88.3321 106.829 Z" fill="#537ece" fill-opacity="0.501961" />
<path d="M 183.696 60.0177 L 179.206 65.9552 L 185.889 76.5861 L 187.326 86.5841 Z" fill="#26292d" fill-opacity="0.501961" />
<path d="M 171.894 53.8317 L 163.651 63.5268 L 136.132 76.5236 L 163.218 66.6208 Z" fill="#4f4041" fill-opacity="0.501961" />
<path d="M 166.184 65.6575 L 151.859 71.1486 L 137.591 89.4062 L 164.606 72.6507 Z" fill="#cf9279" fill-opacity="0.501961" />
<path d="M 95.7472 115.874 L 90.476 151.337 L 95.6278 98.7548 L 92.1154 119.969 Z" fill="#351f20" fill-opacity="0.501961" />
<path d="M 159.293 107.709 L 168.452 105.651 L 154.664 123.304 L 135.741 133.937 Z" fill="#856b5f" fill-opacity="0.501961" />
<path d="M 116.642 134.921 L 106.312 117.803 L 124.101 111.925 L 123.167 123.143 Z" fill="#e79874" fill-opacity="0.501961" />
<path d="M 110.598 130.099 L 122.987 142.849 L 129.063 122.957 L 108.964 145.355 Z" fill="#8f6b5a" fill-opacity="0.501961" />
<path d="M 154.155 62.4748 L 110.473 75.1047 L 108.651 82.6986 L 116.611 78.7975 Z" fill="#1d1c24" fill-opacity="0.501961" />
<path d="M 122.764 96.9052 L 103.512 101.775 L 136.556 88.5358 L 222.728 59.1893 Z" fill="#403637" fill-opacity="0.501961" />
<path d="M 171.93 69.6701 L 178.924 70.0473 L 186.394 35.4921 L 170.428 62.6978 Z" fill="#4c7cd3" fill-opacity="0.501961" />
<path d="M 188.656 146.324 L 192.597 128.562 L 191.875 113.805 L 190.526 118.915 Z" fill="#997564" fill-opacity="0.501961" />
<path d="M 181.527 107.357 L 177.526 103.827 L 166.197 158 L 179.591 133.548 Z" fill="#e59c77" fill-opacity="0.501961" />
<path d="M 161.56 53.9372 L 169.191 68.0555 L 171.887 56.1198 L 134.11 72.3182 Z" fill="#231c1f" fill-opacity="0.501961" />
<path d="M 208.864 62.573 L 217.675 59.2912 L 213.651 66.2423 L 178.734 75.477 Z" fill="#202025" fill-opacity="0.501961" />
<path d="M 88.4696 105.007 L 71.6829 111.633 L 75.9735 93.3154 L 93.3323 91.6208 Z" fill="#5988d6" fill-opacity="0.501961" />
<path d="M 261.829 58.0933 L 271 43.4345 L 214.721 30.7395 L 243.202 72.7557 Z" fill="#4e78cd" fill-opacity="0.501961" />
<path d="M 159.764 132.656 L 169.161 111.595 L 170.033 134.333 L 143.54 158 Z" fill="#edf1d5" fill-opacity="0.501961" />
<path d="M 148.099 67.6874 L 163.365 63.8136 L 164.29 57.0554 L 152.432 68.5247 Z" fill="#d68e6b" fill-opacity="0.501961" />
<path d="M 213.348 62.9687 L 178.525 44.4571 L 188.163 71.2252 L 218.39 53.1492 Z" fill="#4e7acc" fill-opacity="0.501961" />
<path d="M 109.625 107.829 L 119.113 97.2445 L 169.648 81.6136 L 122.092 103.779 Z" fill="#dc987a" fill-opacity="0.501961" />
<path d="M 138.578 143.66 L 155.874 143.36 L 133.2 110.399 L 158.927 101.023 Z" fill="#e19876" fill-opacity="0.501961" />
<path d="M 104.464 87.366 L 154.558 65.8836 L 105.442 83.6996 L 106.007 93.335 Z" fill="#df9c7d" fill-opacity="0.501961" />
<path d="M 242.386 121.091 L 244.216 157.217 L 271 130.467 L 221.58 69.4179 Z" fill="#231c24" fill-opacity="0.501961" />
<path d="M 104.592 106.866 L 88.2211 116.31 L 90.5489 115.727 L 90.3727 105.888 Z" fill="#b67e6b" fill-opacity="0.501961" />
<path d="M 89.4802 148.951 L 64.3956 130.904 L 76.1264 126.25 L 84.4444 125.435 Z" fill="#d69272" fill-opacity="0.501961" />
<path d="M 183.311 76.9828 L 223.685 64.8608 L 186.094 84.7389 L 189.712 82.8219 Z" fill="#495e86" fill-opacity="0.501961" />
<path d="M 52.7965 139.086 L 74.2928 91.0393 L -16 129.119 L 14.5066 158 Z" fill="#6490dc" fill-opacity="0.501961" />
<path d="M 144.932 99.501 L 214.563 82.715 L 229.677 64.217 L 214.557 74.1388 Z" fill="#2f2f2e" fill-opacity="0.501961" />
<path d="M 64.5286 124.969 L 64.7481 122.981 L 63.5694 114.207 L 71.5993 116.624 Z" fill="#91695a" fill-opacity="0.501961" />
<path d="M 130.146 119.784 L 130.674 123.011 L 159.651 127.657 L 148.598 128.402 Z" fill="#806555" fill-opacity="0.501961" />
<path d="M 178.613 157.65 L 180.374 145.262 L 181.59 121.619 L 181.849 146.155 Z" fill="#421b10" fill-opacity="0.501961" />
<path d="M 95.3425 88.402 L 92.5946 141.514 L 91.6912 129.036 L 96.5 103.067 Z" fill="#412e2d" fill-opacity="0.501961" />
<path d="M 114.208 74.6183 L 114.905 69.2049 L 126.315 53.091 L 138.265 45.7048 Z" fill="#261b1d" fill-opacity="0.501961" />
<path d="M 103.769 80.0562 L 101.87 102.073 L 65.2821 50.333 L -14.9309 78.9632 Z" fill="#4f78c8" fill-opacity="0.501961" />
<path d="M -16 1.52764 L 248.235 -16 L 271 28.2285 L 8.91715 52.6343 Z" fill="#4469ba" fill-opacity="0.501961" />
<path d="M 197.465 116.752 L 211.855 112.282 L 196.59 113.847 L 188.185 117.333 Z" fill="#65635c" fill-opacity="0.501961" />
<path d="M 131.772 100.571 L 164.483 93.8532 L 133.43 107.793 L 137.141 84.5195 Z" fill="#3c3d43" fill-opacity="0.501961" />
<path d="M 207.848 112.49 L 192.811 136.537 L 195.181 134.457 L 206.963 158 Z" fill="#f1f5d7" fill-opacity="0.501961" />
<path d="M 142.082 32.1066 L -16 27.8285 L 108.853 72.6528 L 119.19 56.9102 Z" fill="#4a72c2" fill-opacity="0.501961" />
<path d="M 190.583 144.081 L 191.15 115.032 L 183.415 118.324 L 184.107 158 Z" fill="#d6835f" fill-opacity="0.501961" />
<path d="M 206.36 149.517 L 211.049 102.499 L 225.035 76.6616 L 222.202 158 Z" fill="#d99070" fill-opacity="0.501961" />
<path d="M 121.789 67.6803 L 132.018 52.9408 L 155.107 56.4411 L 138.68 64.5255 Z" fill="#d1937a" fill-opacity="0.501961" />
<path d="M 262.799 103.442 L 247.973 84.4925 L 224.953 53.9511 L 225.744 85.4557 Z" fill="#090e1e" fill-opacity="0.501961" />
<path d="M 216.852 78.0677 L 180.085 93.3138 L 199.306 87.5569 L 235.756 73.5448 Z" fill="#2e1f1e" fill-opacity="0.501961" />
<path d="M 151.931 72.5961 L 138.27 78.8239 L 148.744 76.9421 L 161.74 71.6068 Z" fill="#9b6652" fill-opacity="0.501961" />
<path d="M 126.961 83.903 L 135.209 84.9033 L 124.611 92.3916 L 110.535 93.1652 Z" fill="#dd9b7e" fill-opacity="0.501961" />
<path d="M 62.1531 113.551 L 76.8201 119.498 L 75.1972 118.655 L 90.041 107.396 Z" fill="#292d36" fill-opacity="0.501961" />
<path d="M 224.932 49.4193 L 235.483 158 L 224.383 141.163 L 224.536 61.4085 Z" fill="#2b2125" fill-opacity="0.501961" />
<path d="M 64.2208 124.607 L 79.7549 120.785 L 148.485 96.3822 L 113.312 115.411 Z" fill="#2e363f" fill-opacity="0.501961" />
<path d="M 167.955 52.2159 L 163.136 100.265 L 161.752 106.779 L 162.691 116.591 Z" fill="#3a363a" fill-opacity="0.501961" />
<path d="M 108.37 130.913 L 108.238 140.565 L 117.917 150.329 L 96.9101 139.61 Z" fill="#f5f1da" fill-opacity="0.501961" />
<path d="M 215.515 62.4333 L 221.545 59.956 L 224.616 60.9234 L 224.563 42.2836 Z" fill="#52483d" fill-opacity="0.501961" />
<path d="M 117.607 149.565 L 122.362 143.684 L 121.96 136.192 L 62.3659 153.607 Z" fill="#e9a888" fill-opacity="0.501961" />
<path d="M 225.007 71.1978 L 222.027 69.1796 L 216.839 61.4516 L 223.66 59.4384 Z" fill="#b57f6b" fill-opacity="0.501961" />
<path d="M 146.327 84.6931 L 160.921 65.8564 L 124.396 77.8237 L 165.306 59.821 Z" fill="#ca8f75" fill-opacity="0.501961" />
<path d="M 91.7493 121.633 L 93.2994 120.978 L 88.1052 150.251 L 68.6384 130.521 Z" fill="#d19277" fill-opacity="0.501961" />
<path d="M 121.25 99.8644 L 113.397 105.222 L 154.624 93.6255 L 165.91 80.4174 Z" fill="#d39579" fill-opacity="0.501961" />
<path d="M 136.645 73.5653 L 133.098 103.049 L 135.587 106.138 L 135.021 67.542 Z" fill="#402c2b" fill-opacity="0.501961" />
<path d="M 160.824 100.283 L 200.027 85.3958 L 148.63 102.134 L 119.734 112.384 Z" fill="#261c1d" fill-opacity="0.501961" />
<path d="M 247.547 75.1976 L 232.834 62.5909 L 228.543 53.9484 L 243.594 52.7274 Z" fill="#4d78ca" fill-opacity="0.501961" />
<path d="M 227.269 158 L 232.753 154.3 L 234.581 114.907 L 245.714 122.148 Z" fill="#485263" fill-opacity="0.501961" />
<path d="M 176.515 123.511 L 165.891 125.015 L 172.143 119.388 L 168.488 104.375 Z" fill="#937c70" fill-opacity="0.501961" />
<path d="M 171.22 55.3688 L 162.731 52.445 L 165.181 60.348 L 165.277 73.7042 Z" fill="#1c202d" fill-opacity="0.501961" />
<path d="M 126.977 119.56 L 118.147 136.259 L 131.457 136.563 L 119.227 131.903 Z" fill="#73645c" fill-opacity="0.501961" />
<path d="M 139.508 81.3121 L 158.335 73.0323 L 158.739 80.85 L 135.875 88.7058 Z" fill="#d19e87" fill-opacity="0.501961" />
<path d="M 254.45 104.253 L 271 70.2999 L 257.239 102.013 L 258.581 107.697 Z" fill="#5279c7" fill-opacity="0.501961" />
<path d="M -0.92081 13.241 L 97.4515 20.2843 L 262.594 5.25968 L 0.809611 -16 Z" fill="#4164b4" fill-opacity="0.501961" />
<path d="M 128.301 129.184 L 120.683 158 L 156.658 158 L 123.418 132.831 Z" fill="#e8e8cc" fill-opacity="0.501961" />
<path d="M 107.454 116.945 L 104.993 130.386 L 105.277 130.012 L 131.024 111.622 Z" fill="#df9b79" fill-opacity="0.501961" />
<path d="M 141.205 120.558 L 118.819 127.417 L 128.852 117.803 L 142.509 129.461 Z" fill="#8d6756" fill-opacity="0.501961" />
<path d="M 217.739 61.1749 L 182.375 72.2398 L 182.942 79.9543 L 189.851 74.9391 Z" fill="#23252d" fill-opacity="0.501961" />
<path d="M 177.538 113.321 L 179.884 103.293 L 167.728 97.4654 L 164.498 102.946 Z" fill="#e9a27f" fill-opacity="0.501961" />
<path d="M 159.743 114.923 L 154.136 127.029 L 162.022 124.036 L 172.42 116.192 Z" fill="#f1f1d2" fill-opacity="0.501961" />
<path d="M 91.5735 137.813 L 90.2513 156.825 L 84.7636 150.416 L 114.768 154.242 Z" fill="#493f3e" fill-opacity="0.501961" />
<path d="M 139.34 50.6595 L 147.517 58.0332 L 116.066 72.2863 L 135.201 53.5668 Z" fill="#dc997c" fill-opacity="0.501961" />
<path d="M 138.007 70.0059 L 170.612 55.2074 L 156.518 63.3402 L 151.848 64.904 Z" fill="#1b1015" fill-opacity="0.501961" />
<path d="M 232.037 119.44 L 180.673 131.935 L 194.314 127.042 L 218.134 121.692 Z" fill="#b3907a" fill-opacity="0.501961" />
<path d="M 80.9655 89.9005 L -16 84.9583 L 63.1163 139.16 L 57.1473 120.128 Z" fill="#5a84d2" fill-opacity="0.501961" />
<path d="M 198.596 139.322 L 181.245 143.748 L 199.315 158 L 189.075 135.832 Z" fill="#aa9b83" fill-opacity="0.501961" />
<path d="M 103.529 112.092 L 168.822 89.7713 L 85.8686 114.96 L 79.5926 113.575 Z" fill="#726e70" fill-opacity="0.501961" />
<path d="M 71.6255 122.357 L 116.915 109.717 L 175.304 87.2381 L 199.718 83.0809 Z" fill="#282d34" fill-opacity="0.501961" />
<path d="M 156.514 118.451 L 167.155 82.6445 L 159.744 105.179 L 173.261 109.046 Z" fill="#7b675f" fill-opacity="0.501961" />
<path d="M 110.448 75.5781 L 106.935 113.564 L 108.729 79.8036 L 147.749 61.5187 Z" fill="#373134" fill-opacity="0.501961" />
<path d="M 181.777 74.3065 L 167.142 82.2366 L 176.108 83.1558 L 183.482 75.1188 Z" fill="#ca8973" fill-opacity="0.501961" />
<path d="M 74.5554 115.21 L 66.9415 133.7 L 71.9561 102.817 L 65.2654 112.559 Z" fill="#303238" fill-opacity="0.501961" />
<path d="M 196.129 108.005 L 199.943 105.468 L 210.18 116.618 L 197.416 111.62 Z" fill="#93867f" fill-opacity="0.501961" />
<path d="M 160.786 107.916 L 134.066 118.82 L 134.377 109.812 L 152.889 103.579 Z" fill="#e4a280" fill-opacity="0.501961" />
<path d="M 85.8437 106.392 L 91.4667 104.567 L 88.821 111.038 L 69.2911 115.525 Z" fill="#2b2f39" fill-opacity="0.501961" />
<path d="M 163.014 131.114 L 159.527 158 L 154.798 154.321 L 154.281 134.37 Z" fill="#fffff2" fill-opacity="0.501961" />
<path d="M 180.804 113.615 L 158.424 111.352 L 175.502 107.282 L 178.362 158 Z" fill="#dc9a79" fill-opacity="0.501961" />
<path d="M 102.768 89.2514 L 133.899 85.3051 L 114.059 91.8044 L 126.494 81.6472 Z" fill="#cc9076" fill-opacity="0.501961" />
<path d="M 97.4857 119.94 L 104.91 124.586 L 65.5739 144.051 L 81.1515 158 Z" fill="#d49377" fill-opacity="0.501961" />
<path d="M 96.2331 131.978 L 111.092 112.855 L 100.45 128.442 L 110.192 121.867 Z" fill="#72574f" fill-opacity="0.501961" />
<path d="M 194.01 66.9179 L 132.103 36.0694 L 217.182 56.1348 L 240.505 48.1834 Z" fill="#4e77c6" fill-opacity="0.501961" />
<path d="M 188.826 67.5771 L 191.096 67.3577 L 165.341 74.7205 L 168.119 78.5695 Z" fill="#59636d" fill-opacity="0.501961" />
<path d="M 65.9025 121.23 L 53.7964 114.576 L 64.1312 158 L -16 138.477 Z" fill="#6694e0" fill-opacity="0.501961" />
<path d="M 127.21 124.612 L 135.988 119.79 L 114.731 137.762 L 124.588 135.82 Z" fill="#6e5d53" fill-opacity="0.501961" />
<path d="M 100.384 86.754 L 136.38 73.1181 L 133.314 70.3032 L 129.621 75.8606 Z" fill="#cc9583" fill-opacity="0.501961" />
<path d="M 252.054 79.5709 L 256.635 81.4353 L 225.289 90.1989 L 235.402 65.6207 Z" fill="#0d1224" fill-opacity="0.501961" />
<path d="M 64.5311 130.027 L 78.6952 124.353 L 119.82 111.706 L 81.6491 125.029 Z" fill="#24191d" fill-opacity="0.501961" />
<path d="M 125.963 123.224 L 131.581 119.837 L 127.028 124.404 L 121.49 132.331 Z" fill="#ce9073" fill-opacity="0.501961" />
<path d="M 99.9089 104.075 L 134.971 91.3079 L 96.8577 101.918 L 104.843 92.1669 Z" fill="#474144" fill-opacity="0.501961" />
<path d="M 128.626 126.413 L 135.411 122.404 L 137.499 134.736 L 133.823 154.785 Z" fill="#ecebd3" fill-opacity="0.501961" />
<path d="M 113.546 99.3257 L 101.115 102.828 L 94.5309 92.6565 L 92.615 101.778 Z" fill="#393c44" fill-opacity="0.501961" />
<path d="M 206.962 114.256 L 194.721 126.791 L 191.44 118.31 L 199.203 117.683 Z" fill="#dfe3bc" fill-opacity="0.501961" />
<path d="M 191.129 135.414 L 188.722 158 L 191.352 117.632 L 192.565 113.228 Z" fill="#866c5f" fill-opacity="0.501961" />
<path d="M 112.081 140.966 L 201.921 114.808 L 109.398 139.881 L 192.978 158 Z" fill="#c29980" fill-opacity="0.501961" />
<path d="M 200.217 90.5146 L 224.539 158 L 222.96 89.0324 L 200.991 86.1776 Z" fill="#d89476" fill-opacity="0.501961" />
<path d="M 62.9438 137.524 L 66.1738 143.42 L 84.0946 134.582 L 53.6035 158 Z" fill="#dc9778" fill-opacity="0.501961" />
<path d="M 243.173 122.655 L 242.999 158 L 271 146.088 L 225.554 76.6859 Z" fill="#201b23" fill-opacity="0.501961" />
<path d="M 108.321 79.8115 L 134.831 47.3552 L 161.124 55.242 L 130.838 49.1291 Z" fill="#1b1920" fill-opacity="0.501961" />
<path d="M 134 78.8308 L 136.871 65.1403 L 133.969 106.863 L 134.121 83.7589 Z" fill="#402c2b" fill-opacity="0.501961" />
<path d="M 143.124 74.3256 L 104.121 87.7184 L 143.664 73.0435 L 173.637 59.6891 Z" fill="#554747" fill-opacity="0.501961" />
<path d="M 170.282 99.6643 L 203.83 86.0555 L 211.959 148.931 L 225.203 83.4713 Z" fill="#d89676" fill-opacity="0.501961" />
<path d="M 164.406 53.6916 L 154.849 62.1884 L 123.216 72.3187 L 155.22 57.1808 Z" fill="#3e3e42" fill-opacity="0.501961" />
<path d="M 195.074 115.381 L 199.253 115.298 L 203.467 112.156 L 192.469 115.421 Z" fill="#4d423e" fill-opacity="0.501961" />
<path d="M 148.605 92.6883 L 191.406 87.3886 L 213.008 78.9008 L 172.735 92.221 Z" fill="#635e60" fill-opacity="0.501961" />
<path d="M 160.442 45.4376 L 271 44.2222 L 260.768 17.3681 L 115.18 42.7235 Z" fill="#4a71c4" fill-opacity="0.501961" />
<path d="M 271 -16 L 253.967 89.5575 L 271 116.294 L 252.136 72.9559 Z" fill="#4f80dc" fill-opacity="0.501961" />
<path d="M 108.588 92.3375 L 110.891 68.2908 L 108.942 88.3033 L 124.415 84.8966 Z" fill="#865b4c" fill-opacity="0.501961" />
<path d="M 120.302 158 L 149.011 153.751 L 153.567 133.01 L 154.433 157.535 Z" fill="#866b5c" fill-opacity="0.501961" />
<path d="M 174.214 120.896 L 173.934 119.592 L 172.224 110.983 L 170.28 123.061 Z" fill="#836a5f" fill-opacity="0.501961" />
<path d="M 140.66 132.997 L 133.331 154.893 L 141.493 157.518 L 154.492 128.941 Z" fill="#db9270" fill-opacity="0.501961" />
<path d="M 134.481 52.3625 L 145.046 52.9363 L 154.413 53.9715 L 120.708 70.0802 Z" fill="#d19277" fill-opacity="0.501961" />
<path d="M 176.218 68.4792 L 184.129 63.3409 L 180.895 146.986 L 182.892 59.7754 Z" fill="#413033" fill-opacity="0.501961" />
<path d="M 138.6 131.09 L 153.015 125.757 L 156.827 128.673 L 146.594 126.487 Z" fill="#4a4341" fill-opacity="0.501961" />
<path d="M 127.588 70.67 L 94.9657 83.7536 L 128.404 72.0829 L 178.72 49.9896 Z" fill="#3e475b" fill-opacity="0.501961" />
<path d="M 181.094 81.4194 L 220.905 70.916 L 211.599 66.2821 L 201.867 71.2583 Z" fill="#445881" fill-opacity="0.501961" />
<path d="M 153.476 80.9502 L 140.118 79.3027 L 160.033 73.516 L 165.757 74.531 Z" fill="#d9987c" fill-opacity="0.501961" />
<path d="M 163.606 80.8078 L 163.858 84.2198 L 158.486 91.7588 L 138.723 97.8442 Z" fill="#d3977c" fill-opacity="0.501961" />
<path d="M 197.354 84.5251 L 221.303 74.0209 L 227.72 73.3614 L 207.856 81.9217 Z" fill="#535254" fill-opacity="0.501961" />
<path d="M 166.95 93.3193 L 135.782 103.465 L 182.058 84.4623 L 189.388 84.5843 Z" fill="#272b30" fill-opacity="0.501961" />
<path d="M 252.602 71.7714 L 248.821 65.4209 L 225.86 139.615 L 224.509 107.337 Z" fill="#272228" fill-opacity="0.501961" />
<path d="M 107.693 85.1618 L 103.385 93.434 L 106.237 110.098 L 106.922 82.9833 Z" fill="#a5796b" fill-opacity="0.501961" />
<path d="M 68.7797 106.473 L 66.4751 144.842 L 63.862 147.727 L 72.5965 108.52 Z" fill="#383136" fill-opacity="0.501961" />
<path d="M 114.954 62.0551 L 102.866 77.0771 L 99.9465 102.177 L 86.8961 57.1186 Z" fill="#517cca" fill-opacity="0.501961" />
<path d="M 106.441 138.503 L 124.999 135.851 L 120.967 158 L 124.138 133.291 Z" fill="#71615b" fill-opacity="0.501961" />
<path d="M 210.906 153.08 L 200.526 123.003 L 193.927 147.084 L 196.086 139.831 Z" fill="#fafae6" fill-opacity="0.501961" />
<path d="M 74.1377 114.825 L 91.9562 116.741 L 84.4293 93.3213 L 89.9763 110.209 Z" fill="#3f5177" fill-opacity="0.501961" />
<path d="M 150.972 117.987 L 161.91 106.571 L 153.973 112.61 L 145.576 129.474 Z" fill="#6c554e" fill-opacity="0.501961" />
<path d="M 138.454 90.5533 L 146.47 87.3129 L 171.051 78.3034 L 165.289 77.6102 Z" fill="#37363c" fill-opacity="0.501961" />
<path d="M 63.0305 125.645 L 56.234 124.697 L 58.6267 129.692 L 88.9443 120.897 Z" fill="#383f4d" fill-opacity="0.501961" />
</g>
</svg>
