<?xml version="1.0" encoding="UTF-8"?>
<svg width="160px" height="40px" viewBox="0 0 160 40" version="1.1" xmlns="http://www.w3.org/2000/svg" xmlns:xlink="http://www.w3.org/1999/xlink">
    <title>Spotify</title>
    <g id="Page-1" stroke="none" stroke-width="1" fill="none" fill-rule="evenodd">
        <g id="Listen-On" transform="translate(-329.000000, -485.000000)">
            <g id="Spotify" transform="translate(329.000000, 485.000000)">
                <rect id="Rectangle" fill="#000000" x="0" y="0" width="160" height="40" rx="7"></rect>
                <path d="M43,14.8958032 L43,9.10419682 L43.9101895,9.10419682 L43.9101895,14.1316932 L46.6680638,14.1316932 L46.6680638,14.8958032 L43,14.8958032 Z M48.0087195,9.99855282 C47.7265607,9.99855282 47.4808095,9.78147612 47.4808095,9.50361795 C47.4808095,9.22575977 47.7265607,9 48.0087195,9 C48.2999801,9 48.5366294,9.22575977 48.5366294,9.50361795 C48.5366294,9.78147612 48.2999801,9.99855282 48.0087195,9.99855282 Z M47.6082361,14.8958032 L47.6082361,10.7018813 L48.4274066,10.7018813 L48.4274066,14.8958032 L47.6082361,14.8958032 Z M49.3038656,14.3487699 L49.6952471,13.7756874 C49.9956097,14.0882779 50.578131,14.3748191 51.1697542,14.3748191 C51.7886831,14.3748191 52.1163513,14.1316932 52.1163513,13.7756874 C52.1163513,13.3589001 51.615747,13.2199711 51.0514295,13.0984081 C50.3050741,12.9334298 49.4312922,12.7424023 49.4312922,11.8393632 C49.4312922,11.170767 50.0320173,10.5976845 51.1060409,10.5976845 C51.8614982,10.5976845 52.4076119,10.8581766 52.7807896,11.1968162 L52.4167138,11.7438495 C52.1618608,11.4486252 51.6703584,11.2315485 51.1151428,11.2315485 C50.5599272,11.2315485 50.2140552,11.4399421 50.2140552,11.7785818 C50.2140552,12.1432706 50.6873537,12.2648336 51.2334674,12.3863965 C51.9980266,12.5513748 52.9082162,12.7510854 52.9082162,13.7149059 C52.9082162,14.4356006 52.2892873,15 51.1333466,15 C50.3960931,15 49.7498585,14.7829233 49.3038656,14.3487699 Z M55.1135519,15 C54.4218078,15 54.0668339,14.6266281 54.0668339,13.9667149 L54.0668339,11.3878437 L53.3386823,11.3878437 L53.3386823,10.7018813 L54.0668339,10.7018813 L54.0668339,9.55571635 L54.8860045,9.55571635 L54.8860045,10.7018813 L55.7779902,10.7018813 L55.7779902,11.3878437 L54.8860045,11.3878437 L54.8860045,13.7930535 C54.8860045,14.0882779 55.0316348,14.3053546 55.3137936,14.3053546 C55.5049334,14.3053546 55.6778694,14.2272069 55.7597864,14.1403763 L55.96913,14.7308249 C55.796194,14.8871201 55.541341,15 55.1135519,15 Z M56.3722905,12.7945007 C56.3722905,11.5788712 57.2915819,10.5976845 58.5749491,10.5976845 C59.894724,10.5976845 60.7138945,11.5788712 60.7138945,12.8639653 L60.7138945,13.0549928 L57.2369705,13.0549928 C57.3006838,13.7670043 57.8467975,14.357453 58.7296814,14.357453 C59.193878,14.357453 59.7035842,14.1837916 60.0312524,13.8625181 L60.413532,14.3748191 C59.976641,14.7829233 59.3577121,15 58.6477643,15 C57.3370914,15 56.3722905,14.1143271 56.3722905,12.7945007 Z M58.5749491,11.2402315 C57.6920653,11.2402315 57.2733781,11.9175109 57.2278686,12.4905933 L59.9129278,12.4905933 C59.894724,11.934877 59.5033425,11.2402315 58.5749491,11.2402315 Z M64.6667941,14.8958032 L64.6667941,12.2127352 C64.6667941,11.5180897 64.2936164,11.29233 63.7292989,11.29233 C63.2195928,11.29233 62.7553961,11.5875543 62.5187468,11.9001447 L62.5187468,14.8958032 L61.6995763,14.8958032 L61.6995763,10.7018813 L62.5187468,10.7018813 L62.5187468,11.29233 C62.8100075,10.9536903 63.3925288,10.5976845 64.0751709,10.5976845 C65.0035643,10.5976845 65.4859647,11.0665702 65.4859647,11.9522431 L65.4859647,14.8958032 L64.6667941,14.8958032 Z M70.9979655,15 C69.6326812,15 68.777103,14.0101302 68.777103,12.7945007 C68.777103,11.5875543 69.6326812,10.5976845 70.9979655,10.5976845 C72.3723517,10.5976845 73.2188279,11.5875543 73.2188279,12.7945007 C73.2188279,14.0101302 72.3723517,15 70.9979655,15 Z M70.9979655,14.3053546 C71.8808493,14.3053546 72.3632498,13.593343 72.3632498,12.7945007 C72.3632498,12.0043415 71.8808493,11.29233 70.9979655,11.29233 C70.1241835,11.29233 69.6326812,12.0043415 69.6326812,12.7945007 C69.6326812,13.593343 70.1241835,14.3053546 70.9979655,14.3053546 Z M77.1808294,14.8958032 L77.1808294,12.2127352 C77.1808294,11.5180897 76.8076517,11.29233 76.2433342,11.29233 C75.7336281,11.29233 75.2694314,11.5875543 75.0327821,11.9001447 L75.0327821,14.8958032 L74.2136115,14.8958032 L74.2136115,10.7018813 L75.0327821,10.7018813 L75.0327821,11.29233 C75.3240428,10.9536903 75.9065641,10.5976845 76.5892062,10.5976845 C77.5175995,10.5976845 78,11.0665702 78,11.9522431 L78,14.8958032 L77.1808294,14.8958032 Z" id="Listenon" fill="#FFFFFF" fill-rule="nonzero"></path>
                <path d="M29.8942001,18.0815232 C25.8649081,15.6886367 19.218681,15.4686183 15.3722401,16.6360293 C14.7544272,16.8235076 14.1012383,16.4748218 13.9140585,15.8571582 C13.7268787,15.2390468 14.075266,14.5863057 14.6933774,14.3985288 C19.108821,13.0582676 26.4489868,13.3170952 31.0875834,16.0706089 C31.6431523,16.4004872 31.8254063,17.1180099 31.496125,17.6726831 C31.1665453,18.2282519 30.4484255,18.4114015 29.8942001,18.0815232 Z M29.7622488,21.6257001 C29.4795386,22.0843951 28.879787,22.2282877 28.421689,21.9466224 C25.062453,19.881823 19.9400845,19.283564 15.9658718,20.4899335 C15.4504556,20.6456181 14.906231,20.3551461 14.7496507,19.8406255 C14.5944139,19.3253585 14.8850352,18.7820295 15.3995558,18.6253 C19.9394875,17.2475729 25.583392,17.9147929 29.441625,20.2858866 C29.899723,20.5679997 30.0439141,21.1680499 29.7622488,21.6257001 Z M28.232718,25.0294174 C28.0080723,25.3978064 27.52848,25.5131892 27.1614344,25.2886928 C24.2261144,23.4946622 20.5314773,23.0895538 16.1803673,24.0833682 C15.7610785,24.1794956 15.3431332,23.9167871 15.2474535,23.4974983 C15.1514753,23.0783588 15.4132883,22.6604134 15.8334726,22.5647338 C20.5950647,21.4762846 24.6794359,21.9446819 27.9741889,23.9579845 C28.341533,24.1823317 28.4572143,24.6622225 28.232718,25.0294174 Z M22.5,7 C15.5965872,7 10,12.5964379 10,19.4998507 C10,26.4040099 15.5965872,32 22.5,32 C29.4037114,32 35,26.4040099 35,19.4998507 C35,12.5964379 29.4037114,7 22.5,7 L22.5,7 Z" id="Spotify_Icon_RGB_Green" fill="#1ED760"></path>
                <path d="M47.1879883,31.1992188 C49.9770508,31.1992188 51.753418,29.7797852 51.753418,27.5219727 C51.753418,25.7788086 50.7241211,24.7744141 48.2172852,24.2431641 L46.9057617,23.9692383 C45.3535156,23.637207 44.7392578,23.0561523 44.7392578,22.1845703 C44.7392578,21.0888672 45.7685547,20.4082031 47.1713867,20.4082031 C48.6240234,20.4082031 49.6118164,21.1469727 49.7280273,22.3505859 L51.5292969,22.3505859 C51.4711914,20.2587891 49.7363281,18.8227539 47.1962891,18.8227539 C44.6479492,18.8227539 42.8466797,20.2338867 42.8466797,22.2841797 C42.8466797,24.0107422 43.934082,25.1230469 46.3330078,25.6293945 L47.6362305,25.9033203 C49.2382812,26.2519531 49.8691406,26.8330078 49.8691406,27.7626953 C49.8691406,28.8334961 48.7817383,29.6137695 47.2626953,29.6137695 C45.6689453,29.6137695 44.5400391,28.8999023 44.3740234,27.7128906 L42.5644531,27.7128906 C42.6806641,29.8461914 44.4819336,31.1992188 47.1879883,31.1992188 Z M54.9990234,33.8886719 L54.9990234,29.5639648 L55.0405273,29.5639648 C55.5385742,30.5351562 56.534668,31.1494141 57.7880859,31.1494141 C59.9794922,31.1494141 61.4321289,29.3979492 61.4321289,26.6337891 C61.4321289,23.8696289 59.9711914,22.1264648 57.7548828,22.1264648 C56.4931641,22.1264648 55.4887695,22.765625 54.9741211,23.7700195 L54.940918,23.7700195 L54.940918,22.2675781 L53.2060547,22.2675781 L53.2060547,33.8886719 L54.9990234,33.8886719 Z M57.2817383,29.6303711 C55.9038086,29.6303711 54.9907227,28.4516602 54.9907227,26.6337891 C54.9907227,24.8325195 55.9121094,23.637207 57.2817383,23.637207 C58.7011719,23.637207 59.5893555,24.8076172 59.5893555,26.6337891 C59.5893555,28.4682617 58.7011719,29.6303711 57.2817383,29.6303711 Z M66.5620117,31.1660156 C69.0605469,31.1660156 70.7041016,29.4477539 70.7041016,26.6337891 C70.7041016,23.828125 69.0522461,22.1098633 66.5620117,22.1098633 C64.0717773,22.1098633 62.4199219,23.828125 62.4199219,26.6337891 C62.4199219,29.4477539 64.0634766,31.1660156 66.5620117,31.1660156 Z M66.5620117,29.6884766 C65.1591797,29.6884766 64.2460938,28.5761719 64.2460938,26.6337891 C64.2460938,24.699707 65.1591797,23.5874023 66.5620117,23.5874023 C67.9648438,23.5874023 68.8779297,24.699707 68.8779297,26.6337891 C68.8779297,28.5761719 67.9731445,29.6884766 66.5620117,29.6884766 Z M75.0703125,31.0581055 C75.46875,31.0581055 75.8671875,31.0249023 76.0664062,30.9750977 L76.0664062,29.5556641 C75.9501953,29.5805664 75.659668,29.597168 75.4770508,29.597168 C74.746582,29.597168 74.4145508,29.2568359 74.4145508,28.5014648 L74.4145508,23.6870117 L76.074707,23.6870117 L76.074707,22.2675781 L74.4145508,22.2675781 L74.4145508,20.2006836 L72.6132812,20.2006836 L72.6132812,22.2675781 L71.3432617,22.2675781 L71.3432617,23.6870117 L72.6132812,23.6870117 L72.6132812,28.7006836 C72.6132812,30.3857422 73.3022461,31.0581055 75.0703125,31.0581055 Z M78.4985352,20.8564453 C79.0712891,20.8564453 79.527832,20.3916016 79.527832,19.8271484 C79.527832,19.2543945 79.0712891,18.7978516 78.4985352,18.7978516 C77.9257812,18.7978516 77.4609375,19.2543945 77.4609375,19.8271484 C77.4609375,20.3916016 77.9257812,20.8564453 78.4985352,20.8564453 Z M79.3950195,31 L79.3950195,22.2675781 L77.6020508,22.2675781 L77.6020508,31 L79.3950195,31 Z M83.5537109,31 L83.5537109,23.6870117 L85.296875,23.6870117 L85.296875,22.2841797 L83.5288086,22.2841797 L83.5288086,21.4624023 C83.5288086,20.6904297 83.894043,20.300293 84.6743164,20.300293 C84.9150391,20.300293 85.1557617,20.3168945 85.3300781,20.3500977 L85.3300781,19.0219727 C85.0976562,18.9804688 84.690918,18.9389648 84.3256836,18.9389648 C82.5493164,18.9389648 81.7524414,19.7358398 81.7524414,21.4291992 L81.7524414,22.2841797 L80.5488281,22.2841797 L80.5488281,23.6870117 L81.7524414,23.6870117 L81.7524414,31 L83.5537109,31 Z M87.5795898,34.2539062 C89.3891602,34.2539062 90.2524414,33.5732422 90.9995117,31.456543 L94.2700195,22.2675781 L92.3774414,22.2675781 L90.1694336,29.3730469 L90.1362305,29.3730469 L87.9282227,22.2675781 L85.9858398,22.2675781 L89.1401367,31.0083008 C89.1401367,31.0166016 88.9824219,31.53125 88.9824219,31.5478516 C88.7084961,32.4443359 88.2602539,32.7929688 87.4301758,32.7929688 C87.2807617,32.7929688 86.9819336,32.7929688 86.8491211,32.7597656 L86.8491211,34.2124023 C86.9819336,34.2373047 87.4301758,34.2539062 87.5795898,34.2539062 Z" fill="#FFFFFF" fill-rule="nonzero"></path>
            </g>
        </g>
    </g>
</svg>
