<svg class="fill-current" id="Layer_1" data-name="Layer 1" xmlns="http://www.w3.org/2000/svg" width="95px" height="34px" viewBox="0 0 94.66 34.16">
    <title>fiec-logo</title>
    <path d="M52.08,22.91a6.17,6.17,0,0,1,.67,1.59A9.12,9.12,0,0,1,53,26.94a10.62,10.62,0,0,1-2.53.73,18.1,18.1,0,0,1-2.94.22q-4.24,0-6.21-2a7.76,7.76,0,0,1-2-5.63,13.54,13.54,0,0,1,.73-4.37,12.43,12.43,0,0,1,2.14-4A11.19,11.19,0,0,1,45.7,9a10.06,10.06,0,0,1,4.78-1.11,15.59,15.59,0,0,1,2.46.19,11.65,11.65,0,0,1,2.27.59,9.6,9.6,0,0,1-.33,2A7.73,7.73,0,0,1,54,12.84a13.27,13.27,0,0,0-1.62-.52,8.79,8.79,0,0,0-1.77-.18,4.87,4.87,0,0,0-2.53.65,5.62,5.62,0,0,0-1.81,1.69,7.74,7.74,0,0,0-1.08,2.42,11.81,11.81,0,0,0-.35,2.84,3.84,3.84,0,0,0,1,3,3.79,3.79,0,0,0,2.64,1,8.8,8.8,0,0,0,1.62-.15,10.57,10.57,0,0,0,2-.63m-22.54-3.1A20.37,20.37,0,0,0,33,19a12.75,12.75,0,0,0,3-1.38,7.1,7.1,0,0,0,2-2.05,5.13,5.13,0,0,0,.79-2.88,4.33,4.33,0,0,0-1.68-3.56,5.26,5.26,0,0,0-1.84-.9A8.68,8.68,0,0,0,33,7.93,10,10,0,0,0,28.36,9a11.18,11.18,0,0,0-3.5,2.76,12.78,12.78,0,0,0-2.21,3.9,13.06,13.06,0,0,0-.78,4.42,10.1,10.1,0,0,0,.5,3.23,6.23,6.23,0,0,0,1.56,2.47,7.19,7.19,0,0,0,2.68,1.57,12.21,12.21,0,0,0,3.89.55,10.47,10.47,0,0,0,1.61-.09c.61-.09,1.19-.15,1.78-.26s1.17-.24,1.73-.4a9.58,9.58,0,0,0,1.47-.54,11.08,11.08,0,0,0-.2-2.23,4,4,0,0,0-.8-1.79,21.92,21.92,0,0,1-2.4.83,10.13,10.13,0,0,1-2.63.32,4.12,4.12,0,0,1-2.83-.87A4.11,4.11,0,0,1,27,20.22ZM27.25,16.8A9,9,0,0,1,27.9,15a7.23,7.23,0,0,1,1-1.61,4.74,4.74,0,0,1,1.4-1.12,3.62,3.62,0,0,1,1.77-.43,1.78,1.78,0,0,1,1.25.44,1.51,1.51,0,0,1,.46,1.15,2.25,2.25,0,0,1-.19.88,2.37,2.37,0,0,1-.7.87,5.46,5.46,0,0,1-1.42.78,11.47,11.47,0,0,1-2.31.57ZM9,8.38l.08-.33A8.28,8.28,0,0,1,9.6,6.16,3.45,3.45,0,0,1,10.4,5a2.77,2.77,0,0,1,1-.57,4.51,4.51,0,0,1,1.32-.17,9.77,9.77,0,0,1,2.28.3,6.93,6.93,0,0,1,2.07.79A19.63,19.63,0,0,0,18,3.45a12.5,12.5,0,0,0,.65-2.16A10.32,10.32,0,0,0,16,.41,14.43,14.43,0,0,0,12.73,0,8.62,8.62,0,0,0,6.81,2,10.4,10.4,0,0,0,3.87,8.08l-.07.3H.71a9.13,9.13,0,0,0-.56,2,13.2,13.2,0,0,0-.15,2H3.09L.36,27.45a14.87,14.87,0,0,0,2.49.22,17.2,17.2,0,0,0,2.68-.22h0v-.18L8.26,12.36h7.18L12.76,27.45a14.87,14.87,0,0,0,2.49.22,17.2,17.2,0,0,0,2.68-.22L21.32,8.38H9M61.89,6.53v9.72h5.6v-5.7L73,8.8,71.22,3.52ZM80,6.52l3.37,4.61L87.9,7.87,82.15,0,72.82,3l1.73,5.28L80,6.53Zm7.74,10.56-3.38,4.6,4.53,3.26,5.76-7.86L88.9,9.21l-4.53,3.26,3.38,4.61Zm.16,9.21L83.38,23,80,27.63h0l-5.46-1.76-1.73,5.28,9.33,3ZM71.22,30.64,73,25.36,67.49,23.6V17.91h-5.6v9.72Z" fill-rule="evenodd"></path>
</svg>
