<?xml version="1.0" standalone="no"?>
<!DOCTYPE svg PUBLIC "-//W3C//DTD SVG 20010904//EN"
 "http://www.w3.org/TR/2001/REC-SVG-20010904/DTD/svg10.dtd">
<svg version="1.0" xmlns="http://www.w3.org/2000/svg"
 width="500.000000pt" height="500.000000pt" viewBox="0 0 500.000000 500.000000"
 preserveAspectRatio="xMidYMid meet">
<metadata>
Created by potrace 1.11, written by Peter Selinger 2001-2013
</metadata>
<g transform="translate(0.000000,500.000000) scale(0.100000,-0.100000)"
fill="#000000" stroke="none">
<path d="M2186 4984 c-1137 -146 -2030 -1045 -2171 -2184 -19 -160 -19 -440 0
-600 96 -773 538 -1450 1213 -1855 287 -172 626 -286 982 -331 163 -20 507
-15 665 11 433 69 795 225 1160 498 103 78 364 339 442 442 273 365 429 727
498 1160 26 158 31 502 11 665 -73 582 -308 1065 -720 1476 -298 298 -613 492
-1003 618 -142 45 -309 82 -463 101 -154 19 -463 18 -614 -1z m544 -454 c239
-29 455 -92 665 -195 222 -108 392 -233 575 -421 291 -301 468 -651 546 -1079
25 -137 30 -442 10 -592 -87 -664 -487 -1239 -1076 -1551 -203 -108 -453 -186
-693 -218 -150 -20 -455 -15 -592 10 -428 78 -778 255 -1079 546 -188 182
-310 349 -421 574 -139 285 -205 572 -205 898 0 451 138 865 407 1226 71 95
244 274 340 354 288 236 647 392 1020 443 120 16 388 19 503 5z"/>
<path d="M1423 3220 c-276 -29 -497 -229 -558 -505 -25 -113 -17 -285 18 -383
57 -161 171 -296 312 -369 120 -62 186 -76 335 -71 110 4 134 8 202 35 85 34
196 108 227 152 12 16 21 32 21 35 0 7 -131 106 -141 106 -5 0 -27 -20 -50
-45 -24 -26 -70 -59 -108 -78 -63 -31 -71 -32 -181 -32 -136 1 -199 20 -283
89 -108 88 -165 207 -174 361 -12 219 87 405 264 492 67 33 86 38 168 41 70 3
106 0 146 -13 64 -21 142 -68 169 -102 l20 -26 75 57 76 57 -23 28 c-101 124
-305 192 -515 171z"/>
<path d="M2232 3192 c-95 -52 -95 -189 -1 -238 109 -56 236 65 183 172 -36 73
-117 102 -182 66z m121 -50 c66 -59 23 -162 -68 -162 -38 0 -85 50 -85 90 0
41 14 66 48 85 32 18 77 12 105 -13z"/>
<path d="M2740 2895 l0 -114 -92 -3 -93 -3 -3 -72 -3 -73 95 0 95 0 3 -292 c3
-291 3 -293 28 -338 19 -33 39 -52 80 -73 52 -27 60 -29 155 -25 139 5 145 10
145 105 0 74 0 75 -22 68 -51 -17 -138 -17 -164 0 -48 32 -54 64 -54 320 l0
235 115 0 116 0 -3 73 -3 72 -112 3 -113 3 0 114 0 115 -85 0 -85 0 0 -115z"/>
<path d="M2217 2774 c-4 -4 -7 -198 -7 -431 l0 -423 85 0 85 0 -2 428 -3 427
-75 3 c-42 1 -79 0 -83 -4z"/>
<path d="M3296 2772 c-3 -5 74 -199 170 -432 l175 -423 -42 -104 c-45 -112
-75 -148 -135 -159 -35 -6 -83 -2 -115 11 -19 7 -24 -7 -34 -97 l-7 -56 38
-11 c57 -16 163 -13 216 5 59 20 111 70 148 143 45 91 441 1111 435 1122 -9
14 -162 11 -172 -3 -4 -7 -60 -156 -124 -330 l-115 -318 -125 327 -125 328
-91 3 c-50 1 -94 -1 -97 -6z"/>
</g>
</svg>